<?xml version="1.0" encoding="utf-8"?>
<!-- Generator: Adobe Illustrator 22.0.0, SVG Export Plug-In . SVG Version: 6.00 Build 0)  -->
<svg version="1.1" id="Layer_1" xmlns="http://www.w3.org/2000/svg" xmlns:xlink="http://www.w3.org/1999/xlink" x="0px" y="0px"
	 viewBox="0 0 640 480" style="enable-background:new 0 0 640 480;" xml:space="preserve">
<style type="text/css">
	.st0{fill:#DD0031;}
	.st1{fill:#FFFFFF;}
</style>
<g>
	<rect x="189" y="74" class="st0" width="311" height="311"/>
</g>
<g>
	<path class="st1" d="M325.9,216.1c-3.2,5-7.4,8.6-12.6,10.8c6.4,2.3,11.9,6.4,16.3,12.5c4.5,6,6.7,12.6,6.7,19.7
		c0,13.6-4.3,23.7-13,30.2c-8.7,6.6-20.5,9.8-35.3,9.8h-54.1c-1.8,0-3.2-0.5-4.2-1.5c-1-1-1.5-2.4-1.5-4.2V166.6
		c0-1.8,0.5-3.1,1.5-4.2c1-1,2.4-1.5,4.2-1.5h51.8c30,0,45,12.8,45,38.4C330.7,205.5,329.1,211.1,325.9,216.1z M286.3,215.7
		c4.7,0,8.2-1.4,10.7-4.3c2.5-2.9,3.7-6.6,3.7-11c0-3.7-1.4-6.8-4.2-9.5c-2.8-2.7-6.1-4.1-10-4.1h-28.2v28.9H286.3z M288,273.2
		c5.7,0,10.2-1.5,13.5-4.4c3.3-3,5-6.7,5-11.2s-1.7-8.3-5.1-11.2c-3.4-3-8.1-4.4-14-4.4h-29.1v31.4H288z"/>
	<path class="st1" d="M385.3,296.2c-8.4-3.7-15.6-9.3-21.4-17c-6.2-8.1-9.3-18.6-9.3-31.8c0-10.7,2.5-20.2,7.5-28.3
		c5-8.2,11.7-14.5,20.3-19c8.6-4.5,18.1-6.7,28.7-6.7c9.3,0,18,2,26.2,6.1c8.1,4.1,14.8,10,19.9,17.7c3.4,5,5.6,10,6.6,14.7
		c1,4.8,1.5,10.4,1.5,16.8c0,2.6-0.7,4.9-2.1,6.6c-1.4,1.8-3.3,2.6-5.9,2.6h-74.7c1.4,6.6,4.8,11.3,10.4,14.4c5.5,3,11.5,4.5,18,4.5
		c5.2,0,9.6-0.8,13.2-2.3c3.7-1.5,6.9-3.7,9.8-6.4c1.6-1.4,3.1-2.1,4.5-2.1c1.1,0,2.3,0.4,3.4,1.1l12.3,7.2c2,1.1,3,2.5,3,4.2
		c0,1-0.5,2.2-1.5,3.6c-11.6,13-26.5,19.5-44.8,19.5C402.4,301.7,393.8,299.9,385.3,296.2z M392,223.9c-5,3.8-7.8,8.5-8.4,14.2h52
		c-0.4-3.4-1.6-6.6-3.8-9.6c-2.1-3-5-5.5-8.5-7.4c-3.5-1.9-7.6-2.8-12.3-2.8C403.3,218.2,397,220.1,392,223.9z"/>
</g>
</svg>
